<svg width="70" height="79" viewBox="0 0 70 79" fill="none" xmlns="http://www.w3.org/2000/svg">
<path d="M0.75 20.1261L35 0.86051L69.25 20.1261V58.6239L35 77.8895L0.75 58.6239V20.1261Z" fill="white" stroke="#E1A122" stroke-width="1.5"/>
<path d="M42.8206 52.3743C43.1808 52.5369 43.5355 52.6708 43.8725 52.7696C43.704 53.3506 43.5064 53.9029 43.2796 54.4261C41.8612 57.7971 39.4957 60.0001 36.8223 60.0001C36.2586 60.0001 35.7062 59.9012 35.1716 59.7095C33.4222 59.0934 31.8877 57.5125 30.7775 55.3154C30.7019 55.1761 30.6323 55.0249 30.5626 54.8796C30.3941 54.5076 30.2311 54.1183 30.0918 53.7171C29.987 53.4498 29.9001 53.1825 29.8126 52.9034C29.6323 52.3224 29.4812 51.7236 29.3591 51.0957C29.4229 51.0492 29.4871 50.9969 29.5568 50.9445C29.7835 50.7642 30.0044 50.5725 30.2134 50.3576C30.8354 49.7297 31.37 48.9742 31.8235 48.1605C32.0329 47.7826 32.2306 47.3933 32.4104 46.998C32.7474 46.2599 33.0324 45.5099 33.2592 44.801C33.3931 44.3939 33.5092 44.0046 33.608 43.6385C33.7651 43.0629 33.8871 42.5456 33.9741 42.139C32.9395 42.174 31.2015 42.2961 29.3942 42.7086C29.5335 42.052 29.7079 41.4182 29.9055 40.8198C31.1669 40.5817 32.3408 40.471 33.2478 40.4187C33.2073 40.3722 33.1663 40.3258 33.1258 40.2793C32.5967 39.6691 31.905 38.9133 31.0913 38.1055C31.3936 37.565 31.7306 37.0709 32.0853 36.6292C33.3812 37.8905 34.3985 39.059 35.0264 39.8203C35.7996 38.8787 37.1652 37.3268 38.9205 35.7344C38.5194 35.2695 38.0777 34.8743 37.6128 34.5546C37.5431 34.5897 37.4734 34.6184 37.3978 34.6475C37.3919 34.6475 37.386 34.6534 37.3746 34.6534C37.1305 34.7523 36.8865 34.8338 36.6365 34.8975C36.5204 34.9267 36.4097 34.9558 36.2936 34.9731C36.2877 34.979 36.2822 34.979 36.2763 34.979C36.1834 34.9963 36.0846 35.0141 35.9917 35.0255C35.9047 35.0428 35.8173 35.0546 35.7303 35.0605C35.6256 35.0723 35.5154 35.0837 35.4047 35.0896C35.2941 35.1015 35.1898 35.1015 35.0792 35.1015C34.9685 35.1015 34.8583 35.0956 34.7536 35.0896C34.643 35.0837 34.5328 35.0723 34.428 35.0605C34.3524 35.0546 34.2828 35.0432 34.2072 35.0314H34.1899C34.097 35.0196 34.0041 35.0022 33.9108 34.9849C33.847 34.9735 33.7828 34.9617 33.719 34.9385C32.6786 34.1771 31.9231 33.0378 31.6732 31.7183C32.0101 32.1426 32.4404 32.5087 32.9286 32.7934C34.2422 33.5315 35.922 33.5315 37.2298 32.7934C38.6072 32.0147 39.456 30.5558 39.456 28.9803C39.456 27.5969 38.8167 26.3648 37.8112 25.5684C39.1249 25.8183 40.2697 26.5624 41.0429 27.5969C41.6881 28.4689 42.0715 29.5558 42.0715 30.7238C42.0715 32.0316 41.5948 33.2232 40.7988 34.1357C40.5197 34.4613 40.2 34.7518 39.8512 35.0018C40.3047 35.3096 40.7346 35.6935 41.1358 36.1293C40.7232 36.4662 40.328 36.8209 39.95 37.1638C38.7005 38.3145 37.6601 39.4365 36.9274 40.2793C36.8869 40.3258 36.8459 40.3722 36.8054 40.4187C37.8805 40.4824 39.3221 40.6222 40.8507 40.9651C41.0716 41.0115 41.2924 41.0639 41.5192 41.1222C42.1585 41.2847 42.8037 41.4824 43.4316 41.7268C43.6525 41.8083 43.8674 41.8953 44.0828 41.9941C44.2631 42.6858 44.4024 43.4125 44.5071 44.1621C44.2572 44.0109 43.9899 43.8715 43.7226 43.7436C43.1356 43.4645 42.5195 43.2322 41.8916 43.046C39.6713 42.3543 37.3522 42.1799 36.0791 42.1394C36.1661 42.5465 36.2881 43.0637 36.4452 43.6389C36.544 44.005 36.6601 44.3943 36.794 44.8014C37.0208 45.5049 37.3054 46.2544 37.6368 46.9984C37.8172 47.3937 38.0148 47.783 38.2297 48.1609C38.6832 48.9687 39.2237 49.7301 39.8453 50.358C40.0547 50.5729 40.2756 50.7651 40.5019 50.945C40.7519 51.1367 40.996 51.317 41.2401 51.4795C41.2633 51.4969 41.2806 51.5087 41.3038 51.5201C41.8211 51.8689 42.3325 52.1476 42.8206 52.3743ZM37.8104 25.5679C37.4907 25.5042 37.1593 25.475 36.8223 25.475C33.9276 25.475 31.5739 27.8292 31.5739 30.7234C31.5739 31.0604 31.609 31.3978 31.6727 31.7174C32.0097 32.1418 32.44 32.5079 32.9281 32.7925C34.2418 33.5306 35.9216 33.5306 37.2294 32.7925C38.6068 32.0139 39.4555 30.5549 39.4555 28.9794C39.4555 27.5965 38.8162 26.3643 37.8104 25.5679ZM38.9205 35.7336C37.1652 37.326 35.7991 38.8782 35.0264 39.8195C34.3985 39.0581 33.3817 37.8897 32.0853 36.6284C32.6085 35.9718 33.184 35.4254 33.8001 35.001C33.771 34.9837 33.7478 34.9604 33.7186 34.9372C33.7824 34.9604 33.8466 34.9723 33.9103 34.9837C34.0032 35.001 34.0961 35.0187 34.1895 35.0301H34.2068C34.2823 35.0419 34.352 35.0533 34.4276 35.0592C34.5323 35.0711 34.6425 35.0825 34.7532 35.0884C34.8579 35.0943 34.9681 35.1002 35.0787 35.1002C35.1894 35.1002 35.2937 35.1002 35.4043 35.0884C35.5149 35.0825 35.6252 35.0711 35.7299 35.0592C35.8169 35.0533 35.9043 35.0419 35.9913 35.0242C36.0842 35.0128 36.183 34.9951 36.2759 34.9777C36.2818 34.9777 36.2873 34.9777 36.2932 34.9718C36.4093 34.9545 36.5199 34.9254 36.6361 34.8962C36.886 34.8325 37.1301 34.751 37.3742 34.6522C37.386 34.6522 37.3915 34.6463 37.3974 34.6463C37.473 34.6171 37.5427 34.588 37.6124 34.5534C38.0777 34.8734 38.5194 35.2687 38.9205 35.7336Z" fill="#FFCD5F"/>
<path d="M61.8791 34.821C61.3445 32.6358 59.6762 30.9966 57.1713 30.2179C56.0261 29.8632 54.7183 29.6833 53.2885 29.6833C51.6729 29.6833 49.8943 29.9101 48.011 30.3691C45.3896 31.0143 42.9079 32.4964 40.7978 34.1353C40.6002 34.2923 40.4085 34.4431 40.2223 34.6002C39.8908 34.2049 39.5306 33.8561 39.1586 33.5424C40.4431 32.3917 41.1986 30.7352 41.1986 28.9798C41.1986 28.5031 41.1462 28.0381 41.0415 27.5965C40.6868 26.0678 39.7569 24.7542 38.4897 23.9054C38.4779 23.894 38.4606 23.8881 38.4433 23.8763C38.4606 23.8645 38.4783 23.859 38.4956 23.8412C39.257 23.2251 39.7743 22.324 39.8963 21.3072C39.9022 21.2899 39.8963 21.2667 39.9022 21.2434C40.5301 20.9994 40.9773 20.3947 40.9773 19.6798C40.9773 18.7554 40.2219 18 39.2975 18C38.3677 18 37.6177 18.7554 37.6177 19.6798C37.6177 20.1738 37.8327 20.6155 38.1756 20.9238C38.1405 21.9469 37.3678 22.7953 36.3678 22.9291C36.2863 22.9464 36.1934 22.9524 36.1064 22.9524C35.7695 22.8941 35.4321 22.8595 35.0778 22.8595C34.729 22.8595 34.3861 22.8945 34.0546 22.9524C33.9731 22.9524 33.8862 22.9464 33.7987 22.9291C32.7988 22.7898 32.0261 21.941 31.9969 20.9124C32.3284 20.6041 32.5374 20.1683 32.5374 19.6802C32.5374 18.7559 31.7875 18.0004 30.8577 18.0004C29.9333 18.0004 29.1779 18.7559 29.1779 19.6802C29.1779 20.401 29.6369 21.0112 30.2766 21.2493V21.3076C30.3986 22.3249 30.9159 23.2197 31.6714 23.8362C31.6887 23.848 31.7005 23.8594 31.7178 23.8712C31.7005 23.883 31.6828 23.8885 31.6655 23.9003C30.0321 25.0046 28.957 26.8647 28.957 28.9802C28.957 30.7356 29.7184 32.3921 31.0029 33.5428C30.6077 33.8684 30.2357 34.2404 29.8869 34.653C27.6493 32.8047 24.9349 31.0785 22.0403 30.3695C18.4949 29.5093 15.3271 29.4511 12.88 30.2183C10.3747 30.997 8.70676 32.6362 8.17217 34.8215C7.19589 38.8554 10.346 43.9467 18.2741 45.8823C19.0473 46.074 19.8842 46.1847 20.7794 46.2193C18.9776 48.6663 18.6985 51.148 20.1228 52.973C21.5699 54.8272 24.5342 55.5362 27.9579 53.9671C29.5271 57.466 32.108 59.7095 35.0782 59.7095H35.1711C38.0949 59.663 40.6348 57.4487 42.1867 54.0076C42.5587 54.1761 42.9189 54.3154 43.2795 54.4261C44.1515 54.7052 44.9825 54.8331 45.7498 54.8331C47.5575 54.8331 49.0337 54.1241 49.929 52.973C51.3528 51.148 51.0741 48.6663 49.2723 46.2193C50.1675 46.1843 51.0045 46.074 51.7776 45.8823C59.7053 43.9467 62.8558 38.855 61.8791 34.821ZM30.7018 28.9798C30.7018 26.9571 32.0852 25.2482 33.9567 24.7542C33.9972 24.7369 34.0437 24.725 34.0905 24.7191C34.4102 24.6435 34.7417 24.603 35.0786 24.603C35.4215 24.603 35.753 24.6435 36.0727 24.7191C36.1191 24.725 36.1656 24.7364 36.2065 24.7542C36.7994 24.9113 37.3458 25.1899 37.8107 25.5679C38.8161 26.3643 39.4554 27.5965 39.4554 28.9798C39.4554 30.5549 38.6067 32.0138 37.2293 32.7929C35.9215 33.531 34.2417 33.531 32.928 32.7929C32.4399 32.5083 32.0096 32.1417 31.6726 31.7178C31.0565 30.9501 30.7018 29.9911 30.7018 28.9798ZM34.3055 46.998C34.5901 46.3122 34.8287 45.6378 35.0263 45.0099C35.2239 45.6378 35.4621 46.3118 35.7471 46.998H34.3055ZM36.2703 48.1605C36.6364 48.9218 37.0667 49.6718 37.5662 50.3575H32.4863C32.9863 49.6718 33.4162 48.9218 33.7823 48.1605H36.2703ZM35.0263 39.8198C34.3984 39.0585 33.3815 37.8901 32.0852 36.6288C31.8006 36.3496 31.5041 36.065 31.1959 35.7859C31.6144 35.2978 32.0679 34.8852 32.5501 34.5537C32.6198 34.5888 32.6895 34.6175 32.765 34.6466C32.771 34.6466 32.7769 34.6525 32.7883 34.6525C33.0323 34.7514 33.2764 34.8329 33.5264 34.8966C33.5901 34.9139 33.6543 34.9317 33.7181 34.9372C33.7819 34.9604 33.846 34.9722 33.9098 34.9836C34.0027 35.0009 34.0956 35.0187 34.1889 35.0301H34.2062C34.2818 35.0419 34.3515 35.0533 34.4271 35.0592C34.5318 35.071 34.642 35.0824 34.7527 35.0883C34.8574 35.0942 34.9676 35.1001 35.0782 35.1001C35.1889 35.1001 35.2932 35.1001 35.4038 35.0883C35.5144 35.0824 35.6246 35.071 35.7294 35.0592C35.8163 35.0533 35.9038 35.0419 35.9907 35.0241C36.0836 35.0127 36.1825 34.995 36.2754 34.9777C36.2813 34.9777 36.2868 34.9777 36.2927 34.9718C36.4088 34.9545 36.5194 34.9253 36.6355 34.8962C36.8855 34.8324 37.1296 34.7509 37.3737 34.6521C37.3855 34.6521 37.391 34.6462 37.3969 34.6462C37.4725 34.6171 37.5422 34.5879 37.6118 34.5533C38.0767 34.873 38.5184 35.2682 38.9196 35.7331C37.1651 37.3263 35.7995 38.8782 35.0263 39.8198ZM18.6879 44.1907C13.6545 42.9585 8.85329 39.4014 9.87053 35.234C10.3587 33.2232 12.0617 32.2988 13.3986 31.8804C14.3808 31.578 15.5141 31.4214 16.7581 31.4214C18.2344 31.4214 19.8736 31.6363 21.629 32.0666C24.2445 32.7059 26.7671 34.3333 28.8595 36.0714C29.3185 36.4552 29.7602 36.8445 30.1732 37.228C30.4928 37.5244 30.8011 37.8208 31.0916 38.1054C31.9053 38.9132 32.597 39.6691 33.1261 40.2793C33.1666 40.3257 33.2076 40.3722 33.2481 40.4186C32.3415 40.471 31.1672 40.5812 29.9059 40.8198C29.6732 40.8662 29.4409 40.9127 29.2024 40.965C29.0166 41.0056 28.8363 41.0465 28.65 41.093C28.0107 41.2501 27.3714 41.4477 26.7435 41.6799C25.6274 42.0925 24.5583 42.6389 23.6398 43.3538C23.6339 43.3597 23.628 43.3656 23.6225 43.3711C23.6166 43.377 23.6107 43.377 23.6107 43.3829C23.1399 43.7549 22.7214 44.1097 22.3494 44.4639C20.9952 44.545 19.763 44.4521 18.6879 44.1907ZM28.9059 51.4212C28.8536 51.4563 28.8071 51.4909 28.7548 51.52C28.2666 51.8456 27.7899 52.1129 27.325 52.3278C24.6976 53.56 22.4832 53.1588 21.4951 51.9034C20.3909 50.4796 21.0475 48.2593 23.2095 46.0677L23.3434 45.9284C23.7386 45.539 24.1863 45.1438 24.7149 44.7312C25.2381 44.3242 25.8251 43.9813 26.4471 43.6849C27.034 43.4176 27.6501 43.1908 28.278 43.005C28.65 42.8944 29.0221 42.7956 29.3941 42.7086C31.2018 42.296 32.9394 42.174 33.974 42.1389C33.8866 42.546 33.7645 43.0633 33.6079 43.6384C33.5091 44.0045 33.3929 44.3938 33.2591 44.8009C33.0323 45.5099 32.7477 46.2598 32.4103 46.998C32.23 47.3932 32.0324 47.7825 31.8234 48.1605C31.3699 48.9742 30.8353 49.7296 30.2133 50.3575C30.0038 50.5725 29.783 50.7646 29.5566 50.9445C29.487 50.9968 29.4228 51.0492 29.359 51.0956C29.2083 51.2118 29.0571 51.3224 28.9059 51.4212ZM35.0786 57.9659C33.4744 57.9659 31.9691 56.9719 30.7774 55.3154C30.6727 55.176 30.5739 55.0308 30.4751 54.8796H39.6877C38.4496 56.7916 36.8222 57.9659 35.0786 57.9659ZM40.3502 53.7171H29.8185C29.7137 53.5195 29.6149 53.31 29.5279 53.101C29.6208 53.0427 29.7137 52.979 29.813 52.9034C30.0803 52.729 30.3535 52.5314 30.6267 52.3223C30.9404 52.0783 31.2369 51.811 31.516 51.52H38.537C38.8161 51.8105 39.1126 52.0778 39.4263 52.3223C39.8216 52.6306 40.2168 52.9093 40.612 53.1534C40.5305 53.3451 40.4436 53.5368 40.3502 53.7171ZM48.5574 51.9034C47.7205 52.973 45.9943 53.4207 43.8728 52.7695C43.5358 52.6707 43.1811 52.5368 42.8209 52.3743C42.3328 52.1475 41.821 51.8684 41.3037 51.52C41.2805 51.5082 41.2632 51.4968 41.2399 51.4795C40.9959 51.3169 40.7518 51.1366 40.5018 50.9449C40.2751 50.7646 40.0542 50.5729 39.8452 50.3579C39.2232 49.73 38.6827 48.9687 38.2296 48.1609C38.0147 47.783 37.817 47.3936 37.6367 46.9984C37.3053 46.2543 37.0207 45.5048 36.7939 44.8013C36.66 44.3943 36.5439 44.0049 36.4451 43.6388C36.288 43.0633 36.166 42.546 36.079 42.1393C37.3517 42.1799 39.6708 42.3543 41.8915 43.046C42.5194 43.2318 43.1355 43.4644 43.7225 43.7435C43.9898 43.8715 44.2571 44.0108 44.507 44.162C44.7976 44.3364 45.0767 44.5281 45.3381 44.7316C45.344 44.7376 45.3499 44.7376 45.3554 44.7435C45.3613 44.7494 45.3668 44.7549 45.3727 44.7549C45.3727 44.7608 45.3786 44.7608 45.3845 44.7667C45.8845 45.1619 46.3143 45.534 46.6923 45.9119C46.6982 45.9178 46.7041 45.9233 46.7096 45.9292L46.8667 46.0863C49.0105 48.2652 49.6617 50.4855 48.5574 51.9034ZM51.3647 44.1907C50.2896 44.4521 49.0574 44.5454 47.7028 44.4639C47.3248 44.1037 46.895 43.7372 46.4123 43.3538C46.395 43.342 46.3773 43.3306 46.3599 43.3187C46.3599 43.3128 46.3599 43.3128 46.354 43.3128C46.354 43.3128 46.354 43.3069 46.3481 43.3069C46.3422 43.3069 46.3422 43.301 46.3422 43.301H46.3363C46.3363 43.2951 46.3304 43.2951 46.3304 43.2896H46.3186C46.3186 43.2837 46.3186 43.2837 46.3186 43.2837C46.3126 43.2778 46.3126 43.2778 46.3072 43.2778C46.3072 43.2719 46.3012 43.2719 46.3012 43.2719L46.2953 43.266H46.2894C46.2894 43.266 46.2894 43.266 46.2894 43.26H46.2835C46.2835 43.26 46.2835 43.2541 46.2776 43.2541C45.6091 42.7483 44.8592 42.3298 44.0805 41.9928C43.8656 41.894 43.6503 41.807 43.4294 41.7255C42.8015 41.4815 42.1567 41.2838 41.517 41.1208C41.2902 41.0626 41.0694 41.0102 40.8485 40.9638C39.3199 40.6209 37.8783 40.4815 36.8032 40.4173C36.8437 40.3709 36.8847 40.3244 36.9252 40.278C37.6574 39.4351 38.6979 38.3136 39.9478 37.1625C40.3257 36.8196 40.721 36.4649 41.1335 36.1279C41.1741 36.0874 41.2205 36.0464 41.2674 36.0118C41.3489 35.9422 41.4245 35.878 41.5056 35.8142C43.54 34.175 45.9347 32.6755 48.4223 32.0653C51.6598 31.2748 54.508 31.2111 56.6527 31.8795C57.9896 32.298 59.6926 33.2223 60.1808 35.2332C61.1993 39.4014 56.3981 42.9585 51.3647 44.1907Z" fill="#231F20"/>
</svg>
