<svg width="70" height="79" viewBox="0 0 70 79" fill="none" xmlns="http://www.w3.org/2000/svg">
<path d="M0.75 20.1261L35 0.86051L69.25 20.1261V58.6239L35 77.8895L0.75 58.6239V20.1261Z" fill="white" stroke="#E1A122" stroke-width="1.5"/>
<path d="M48.2333 44.6845L52.64 37.0336L48.2333 29.3758H39.6495L35.2362 21.718H26.4228L22.0161 29.3758L26.4228 37.0336H25.9565L21.5498 44.6845L25.9565 52.3423H34.5403L38.9536 60H47.767L52.1737 52.3423L47.767 44.6845H48.2333Z" fill="#FFCD5F"/>
<path d="M50.4307 34.3272L45.4383 25.6565H36.8535L32.4455 18H22.4564L17.4643 26.6704L21.6407 33.9242L17 41.9836L21.9921 50.6543H30.5768L34.9849 58.3108H44.974L49.9661 49.6404L45.7903 42.3866L50.4307 34.3272ZM44.2662 27.6843L48.0908 34.3272L44.2662 40.9697H36.6215L32.7972 34.3272L36.6215 27.6843H44.2662ZM19.8038 26.6704L23.6285 20.0278H31.2731L34.9816 26.4689L31.0411 33.3136H23.6285L19.8038 26.6704ZM23.1645 48.6265L19.3399 41.9836L23.1645 35.3411H31.0411L34.6334 41.5807L30.5772 48.6265H23.1645ZM47.6269 49.6404L43.8022 56.283H36.1576L32.3333 49.6404L36.1576 42.9975H43.8022L47.6269 49.6404ZM24.9754 21.8217L21.8402 27.1242L21.2587 26.7803L24.5899 21.1457H31.1632V21.8217H24.9754ZM33.8892 34.5388L37.2204 28.9042H43.7937V29.5802H37.6059L34.4707 34.8827L33.8892 34.5388ZM36.7558 44.126H43.3291V44.8019H37.1413L34.0061 50.1044L33.4246 49.7605L36.7558 44.126ZM23.9139 36.691H30.4872V37.3669H24.2995L21.1642 42.6694L20.5828 42.3255L23.9139 36.691Z" fill="#231F20"/>
</svg>
