<svg width="70" height="79" viewBox="0 0 70 79" fill="none" xmlns="http://www.w3.org/2000/svg">
<path d="M0.75 20.1261L35 0.86051L69.25 20.1261V58.6239L35 77.8895L0.75 58.6239V20.1261Z" fill="white" stroke="#E1A122" stroke-width="1.5"/>
<path d="M51.6728 54.9537C51.5953 55.4859 51.4455 55.9923 51.2182 56.473C51.1612 56.5919 51.0993 56.7107 51.0322 56.8296C48.7431 60.8444 41.5869 61.077 35.0507 57.3513C32.1676 55.7083 29.8889 53.569 28.4423 51.3473C27.1403 49.3581 26.4993 47.3015 26.6957 45.4726C26.7732 44.7131 26.9901 43.9895 27.3676 43.3336C28.0909 42.0625 29.3053 41.1686 30.8399 40.6621C31.3772 40.4814 31.9507 40.3521 32.5604 40.2694C32.6174 40.2642 32.6688 40.2537 32.7258 40.2485C32.6326 40.3726 32.5551 40.5019 32.4933 40.6257C32.3744 40.8686 32.3073 41.1011 32.2969 41.349C32.2865 41.6023 32.333 41.8606 32.4415 42.1188C32.7981 43.0024 33.821 43.9015 35.3764 44.6662C35.5832 44.7694 35.8001 44.8678 36.0222 44.9606C36.3322 45.0948 36.6527 45.2189 36.9885 45.3377C38.3527 45.8233 39.913 46.1851 41.5768 46.402C41.9487 46.4486 42.3209 46.4899 42.7033 46.5209C43.096 46.557 43.4989 46.5827 43.9021 46.6036C45.3282 46.6707 46.6715 46.6241 47.9065 46.5004C47.9683 46.4899 48.0358 46.4847 48.0924 46.4799C49.4254 47.875 50.4278 49.3682 51.0426 50.8461C51.2081 51.2389 51.3475 51.6368 51.4559 52.024C51.735 53.0369 51.8125 54.0292 51.6728 54.9537Z" fill="#FFCD5F"/>
<path d="M21.8586 35.1958C21.3102 37.2771 19.5584 39.789 18.9901 38.8266C18.4218 37.8642 19.4162 36.6803 19.4162 36.6803C19.4162 36.6803 22.4071 33.1149 21.8586 35.1958ZM50.5826 47.6425C50.6344 47.7509 50.6806 47.8542 50.7272 47.9629C51.3111 49.3682 51.554 50.7533 51.4557 52.0244C51.3886 52.8923 51.1613 53.7035 50.7737 54.4424L51.6729 54.9541L54.6336 56.6384C55.0055 56.8501 55.1348 57.3256 54.9227 57.6975C54.7834 57.9505 54.5199 58.0902 54.2509 58.0902C54.1216 58.0902 53.9874 58.0541 53.8685 57.987L51.2179 56.473L49.8746 55.7083C49.2802 56.3593 48.5364 56.8862 47.6734 57.279C46.3818 57.8681 44.8316 58.1677 43.142 58.1677C40.2019 58.1677 36.8384 57.2686 33.6348 55.4396C31.6248 54.2978 29.8577 52.8975 28.4421 51.3473C27.5328 50.3654 26.773 49.3167 26.1842 48.2368C25.4143 46.8316 24.975 45.4465 24.8718 44.1393C24.1276 44.9196 23.3063 45.5706 22.4433 46.0304C21.4718 46.5573 20.5107 46.8212 19.6168 46.8212C18.8935 46.8212 18.2115 46.6456 17.5963 46.2994C14.863 44.7388 14.5787 40.2697 16.9401 36.1204C18.671 33.0874 21.2702 31.1963 23.616 31.0051C21.1875 27.9823 18.4851 27.3312 17.116 27.2124C16.7698 27.7292 15.912 28.0236 14.9561 27.8891C13.7782 27.7237 12.9048 26.9847 13.0083 26.2357C13.1116 25.4867 14.1553 25.0112 15.3336 25.1766C16.1605 25.2903 16.8268 25.6935 17.1215 26.179C18.6457 26.2979 21.6477 26.9698 24.3243 30.2352C24.7998 27.3778 20.8521 22.9706 19.1055 21.3533C18.5525 21.5135 17.7621 21.2758 17.1059 20.7023C16.2377 19.9422 15.9276 18.8779 16.4135 18.3249C16.8942 17.7719 17.9894 17.9426 18.8577 18.702C19.5191 19.2807 19.8497 20.035 19.7669 20.6036L19.7874 20.5779C20.0818 20.8518 26.7681 27.0727 25.1404 31.1393C25.4505 31.2272 25.7501 31.3409 26.0344 31.5011C27.9617 32.6015 28.6645 35.1388 28.0959 37.9959C28.0959 37.9907 28.1011 37.9907 28.1011 37.9907C28.8452 37.567 29.6978 37.2569 30.638 37.0606C31.8368 34.2602 36.2649 31.4959 42.0621 30.1834C49.3838 28.5352 55.7235 29.9304 56.4986 33.3561C56.8448 34.8959 56.0544 36.5545 54.2613 38.1099C56.4263 39.3448 57.5629 40.8794 57.4854 42.5071C57.3773 44.8626 54.6388 46.7537 50.5826 47.6425ZM31.8886 38.8485C31.9866 38.7505 32.0902 38.6469 32.1986 38.5541C32.2657 38.4922 32.3332 38.4352 32.4054 38.3786C32.4054 38.3786 32.4054 38.3786 32.4107 38.3786C32.4159 38.3681 32.4263 38.3581 32.4364 38.3581C32.4934 38.3063 32.5553 38.26 32.6171 38.2135C32.9115 37.9914 33.2424 37.7793 33.5987 37.5778C33.7019 37.5208 33.8055 37.4693 33.9139 37.4123C33.9501 37.3918 33.9914 37.3709 34.038 37.3504C34.224 37.2573 34.4151 37.1697 34.6115 37.0818C34.746 37.03 34.875 36.9733 35.0147 36.9215C35.1026 36.8854 35.1902 36.8492 35.2834 36.8183C35.3504 36.7926 35.4227 36.7665 35.4902 36.7408C35.5781 36.7099 35.6761 36.6789 35.7693 36.6476C35.9038 36.6011 36.0432 36.5597 36.1773 36.5183C36.2806 36.4874 36.3841 36.4565 36.4874 36.4252C37.0404 36.2702 37.6243 36.136 38.2287 36.022C38.3632 35.9963 38.4974 35.9702 38.6368 35.9497C39.5151 35.7999 40.4504 35.6963 41.4167 35.6449C41.5821 35.6345 41.7472 35.6244 41.9127 35.6192C42.7239 35.5882 43.5556 35.5882 44.4082 35.6296C44.6098 35.64 44.8163 35.6501 45.0179 35.6657C45.9584 35.7276 46.8833 35.8364 47.7769 35.9862C47.9577 36.0119 48.1388 36.0481 48.3195 36.0794C48.5882 36.1259 48.8516 36.1826 49.1099 36.2396C49.4769 36.3223 49.8436 36.4103 50.195 36.5031C50.5516 36.6011 50.8978 36.6994 51.2336 36.8079C51.4042 36.8597 51.5693 36.9163 51.7348 36.9785C51.8846 37.0303 52.0292 37.0818 52.1741 37.1388C52.2103 37.1492 52.2464 37.1645 52.2878 37.1801C52.4376 37.2371 52.5822 37.2938 52.7271 37.3557C54.4062 36.0794 55.2227 34.7568 54.985 33.6974C54.6388 32.1681 51.9211 31.0416 47.9733 31.0416C46.3043 31.0416 44.4235 31.2432 42.4034 31.6978C37.5155 32.7983 33.9657 34.9167 32.55 36.8235C32.1263 37.3866 31.8938 37.9292 31.8629 38.4251C31.8525 38.5746 31.8625 38.714 31.8886 38.8485ZM25.2697 32.8493C23.3529 31.759 20.1597 33.6088 18.289 36.8899C16.4184 40.1658 16.4545 43.8602 18.3666 44.9505C19.2501 45.4517 20.4384 45.3534 21.7095 44.6662C23.0995 43.9168 24.3911 42.5839 25.3472 40.9096C27.2175 37.6341 27.1814 33.9397 25.2697 32.8493ZM26.6958 45.4726C26.8818 46.1288 27.1661 46.8055 27.5432 47.493C27.6465 47.679 27.7549 47.8649 27.8738 48.0512L30.9689 42.6207C30.8035 42.1814 30.726 41.732 30.7468 41.2773C30.7572 41.0705 30.7882 40.8641 30.84 40.6625C30.8605 40.5798 30.8865 40.497 30.9123 40.4143C30.6589 40.0525 30.4834 39.6601 30.3853 39.2416C30.3492 39.0761 30.3235 38.9058 30.3183 38.7352C28.8042 39.1745 27.652 40.001 27.0062 41.1327C26.3184 42.3465 26.2151 43.8449 26.6958 45.4726ZM31.8007 52.3497L35.2472 46.3147C35.0561 46.232 34.8701 46.1441 34.6894 46.0565C33.2789 45.3641 32.2195 44.5477 31.5581 43.6693L28.6026 48.8569L28.277 48.671C29.1914 49.9935 30.3902 51.2388 31.8007 52.3497ZM36.575 55.1762L40.75 47.8545C40.1042 47.7513 39.4737 47.6324 38.8641 47.4927C37.9288 47.2758 37.0351 47.012 36.2083 46.7023L32.638 52.9698C33.1962 53.3726 33.785 53.7449 34.3998 54.0962C35.1179 54.5043 35.8464 54.8661 36.575 55.1762ZM46.9813 48.1284C46.4078 48.1645 45.8135 48.1854 45.2143 48.1854C44.7596 48.1854 44.2946 48.175 43.8295 48.1545C43.1629 48.1235 42.5067 48.0717 41.8609 47.9994L37.5464 55.5641C39.1275 56.1532 40.6878 56.4994 42.14 56.613L46.9813 48.1284ZM49.9368 51.4661C49.9368 50.3967 49.632 49.3734 49.2962 48.5622C49.2083 48.3505 49.1102 48.1333 49.0018 47.9216C48.7488 47.9629 48.4954 47.9939 48.2319 48.0196L43.3078 56.6589C46.0516 56.6332 48.2785 55.6979 49.3275 53.8585C49.7717 53.0834 49.9368 52.2617 49.9368 51.4661ZM55.9359 42.4344C55.9929 41.2565 54.7062 39.9541 52.505 38.9517C50.3038 37.9493 47.405 37.324 44.336 37.1794C42.0055 37.071 39.9336 37.2465 38.1974 37.6031C38.1922 37.6031 38.1922 37.6031 38.1922 37.6031C37.0504 37.8357 36.0532 38.1457 35.2211 38.5075C34.8545 38.6677 34.5184 38.8332 34.2135 39.0087C33.5469 39.3963 33.0509 39.82 32.7256 40.2489C32.6324 40.373 32.5549 40.5022 32.493 40.626C32.3742 40.8689 32.3071 41.1015 32.2967 41.3493C32.2862 41.6027 32.3328 41.8609 32.4412 42.1192C32.7979 43.0027 33.8208 43.9019 35.3762 44.6665C35.583 44.7698 35.7999 44.8681 36.022 44.9609C36.332 45.0951 36.6525 45.2192 36.9882 45.3381C38.3525 45.8236 39.9127 46.1854 41.5766 46.4023C41.9485 46.4489 42.3207 46.4903 42.703 46.5212C43.0958 46.5574 43.4986 46.5831 43.9018 46.6039C45.3279 46.671 46.6713 46.6244 47.9062 46.5007C47.9681 46.4903 48.0355 46.4851 48.0922 46.4802C48.1127 46.4802 48.1283 46.475 48.1492 46.475C48.511 46.4336 48.8572 46.3818 49.1982 46.3304C49.4151 46.2942 49.6219 46.2529 49.8287 46.2167C53.5227 45.4931 55.8633 43.9585 55.9359 42.4344Z" fill="#231F20"/>
</svg>
