<svg width="70" height="79" viewBox="0 0 70 79" fill="none" xmlns="http://www.w3.org/2000/svg">
<path d="M0.75 20.1261L35 0.86051L69.25 20.1261V58.6239L35 77.8895L0.75 58.6239V20.1261Z" fill="white" stroke="#E1A122" stroke-width="1.5"/>
<path d="M53.8557 21.3357H22.1155V56.5127H53.8557V21.3357Z" fill="#FFCD5F"/>
<path d="M54.9169 18H52.3392H18.7799H16V19.8195H18.7799V54.9964H21.5342V60H27.1441V54.9964H43.9743V60H49.5843V54.9964H52.3389V19.8195H54.9166V18H54.9169ZM20.5993 31.9496H50.5201V42.2599H20.5993V31.9496ZM25.3247 58.1805H23.3536V54.9964H25.3247V58.1805ZM47.7651 58.1805H45.7941V54.9964H47.7651V58.1805ZM49.5846 53.177H43.9746H27.1444H21.5342H20.5993V44.0794H50.5201V53.177H49.5846ZM50.5201 30.1301H20.5993V19.8195H50.5201V30.1301ZM45.0361 27.4008H26.083V26.1877H45.0361V27.4008ZM34.1824 23.8377C34.1824 23.0771 34.7989 22.4605 35.5595 22.4605C36.3201 22.4605 36.9367 23.0771 36.9367 23.8377C36.9367 24.5983 36.3201 25.2148 35.5595 25.2148C34.7989 25.2148 34.1824 24.5983 34.1824 23.8377ZM45.0361 38.3178V39.5309H26.083V38.3178H45.0361ZM34.1824 35.9675C34.1824 35.2069 34.7989 34.5903 35.5595 34.5903C36.3201 34.5903 36.9367 35.2069 36.9367 35.9675C36.9367 36.7281 36.3201 37.3446 35.5595 37.3446C34.7989 37.3446 34.1824 36.7281 34.1824 35.9675ZM26.083 49.8412H45.0361V51.0543H26.083V49.8412ZM34.1824 47.4909C34.1824 46.7303 34.7989 46.1138 35.5595 46.1138C36.3201 46.1138 36.9367 46.7303 36.9367 47.4909C36.9367 48.2515 36.3201 48.868 35.5595 48.868C34.7989 48.8684 34.1824 48.2515 34.1824 47.4909Z" fill="#231F20"/>
</svg>
