<svg width="70" height="79" viewBox="0 0 70 79" fill="none" xmlns="http://www.w3.org/2000/svg">
<path d="M0.75 20.1261L35 0.86051L69.25 20.1261V58.6239L35 77.8895L0.75 58.6239V20.1261Z" fill="white" stroke="#E1A122" stroke-width="1.5"/>
<path d="M45.2634 46.5755C45.1393 47.1786 44.9973 47.7636 44.8319 48.3313C43.3363 53.5865 40.3392 57.1687 36.8811 57.1687C36.5795 57.1687 36.2839 57.1391 35.9945 57.0919C35.3855 56.9797 34.7945 56.7608 34.221 56.4356C33.6297 56.0986 33.0624 55.6494 32.5305 55.1057C30.9581 53.5097 29.6814 51.0744 28.8771 48.1305C28.7472 47.6694 28.6287 47.1907 28.5283 46.7057C28.3807 46.02 28.2563 45.3165 28.1677 44.5893C28.7826 44.1047 29.4031 43.5488 30.018 42.9343C30.1539 42.7984 30.29 42.6563 30.4141 42.5146C30.757 42.1363 31.0644 41.7402 31.342 41.3324C33.7833 37.7679 34.1911 33.1099 34.2151 30.6978C34.2151 30.5206 34.2151 30.3549 34.221 30.2014C34.2151 30.0833 34.2151 29.9707 34.2151 29.8644C34.0615 29.8585 33.884 29.8585 33.695 29.8585C32.8025 29.8585 31.5195 29.9057 30.0653 30.1128C30.3904 29.4152 30.7451 28.7767 31.1294 28.1916C32.684 25.8035 34.6938 24.3611 36.8811 24.3611C37.5846 24.3611 38.2645 24.5087 38.9204 24.7926C41.0309 25.691 42.8572 27.9609 44.1048 31.0584C44.087 31.0525 44.0693 31.0466 44.0516 31.0407C43.3658 30.7982 42.6741 30.6092 42.0005 30.4553C39.4762 29.8759 37.159 29.8345 36.0063 29.8641C36.0004 29.994 36.0004 30.1361 36.0004 30.2896V30.5794C36.0181 32.9616 36.3964 37.7204 38.8735 41.332C39.1514 41.7458 39.4588 42.1418 39.8014 42.5143C39.9254 42.656 40.0616 42.7981 40.1974 42.9339C40.9364 43.6729 41.6753 44.3173 42.4143 44.8787C42.9461 45.2807 43.4784 45.6295 44.0043 45.9369C44.4296 46.1794 44.8493 46.3921 45.2634 46.5755Z" fill="#FFCD5F"/>
<path d="M50.3292 32.802C48.3313 30.8041 45.8129 29.6396 43.4012 28.9715C42.3489 26.063 40.8061 23.7812 38.9617 22.4336C40.5222 21.5644 41.5804 19.9035 41.5804 18H39.8069C39.8069 19.7853 38.3763 21.2392 36.6031 21.2927H36.5913C36.5854 21.2986 36.5854 21.2986 36.5795 21.2927C36.1007 21.1743 35.6099 21.1093 35.1075 21.1093C34.6051 21.1093 34.1143 21.1743 33.6355 21.2924C33.6296 21.2983 33.6296 21.2983 33.6237 21.2924H33.6119C31.8384 21.2393 30.4081 19.7853 30.4081 18H28.6346C28.6346 19.9035 29.6928 21.5644 31.2533 22.4336C29.409 23.7812 27.8661 26.0633 26.8138 28.9715C24.4021 29.6396 21.8837 30.8041 19.8858 32.802C13.5192 39.1683 14.3293 44.4945 16.9537 47.1191C18.928 49.0994 22.4274 50.0453 26.7548 47.6865C28.0433 51.3162 30.0888 53.9881 32.5301 55.105C33.0738 55.3534 33.6414 55.5247 34.2206 55.6133V60H35.9941V55.614C39.1743 55.1411 41.8816 52.1204 43.4603 47.6809C43.9272 47.9352 44.3882 48.1537 44.8318 48.3312C46.1086 48.8513 47.2967 49.0761 48.3844 49.0761C50.4355 49.0761 52.1086 48.2722 53.2613 47.1195C55.8857 44.4945 56.6958 39.1683 50.3292 32.802ZM35.1075 22.8828C36.4791 22.8828 37.7794 23.5804 38.9203 24.7922C39.8128 25.7378 40.6049 26.9972 41.2553 28.481C38.081 27.9192 35.474 28.1023 35.1075 28.1322C34.8296 28.1085 33.2631 27.9963 31.1293 28.1912C30.4553 28.2562 29.7223 28.3448 28.9598 28.481C30.4494 25.0819 32.6722 22.8828 35.1075 22.8828ZM33.4406 41.332C34.1914 40.0198 34.7292 38.6246 35.1075 37.2708C35.4445 38.4766 35.9055 39.7061 36.5263 40.8825C36.6031 41.0301 36.6858 41.184 36.7747 41.3317L33.4406 41.332ZM37.531 42.5142C37.9448 43.0996 38.4117 43.661 38.938 44.187C39.4227 44.6716 39.9076 45.1208 40.3805 45.5231H29.8345C30.3074 45.1212 30.792 44.672 31.277 44.187C31.803 43.661 32.2702 43.0993 32.684 42.5142H37.531ZM27.8011 44.8787C27.2633 45.2806 26.737 45.6353 26.2111 45.9369C23.0663 47.7577 20.1401 47.799 18.2071 45.866C15.5116 43.1705 16.6643 38.536 21.1389 34.0552C22.5754 32.6186 24.3663 31.6612 26.1694 31.0344C26.8552 30.7979 27.5409 30.6089 28.2087 30.4553C28.8472 30.3076 29.4677 30.1951 30.0649 30.1124C31.5191 29.9057 32.8018 29.8581 33.6946 29.8581C33.8839 29.8581 34.0611 29.8581 34.2147 29.864C34.2147 29.9703 34.2147 30.0829 34.2206 30.201C34.2147 30.3546 34.2147 30.5203 34.2147 30.6975C34.1911 33.1092 33.7832 37.7676 31.3416 41.332C31.0637 41.7398 30.7562 42.1359 30.4137 42.5142C30.2896 42.656 30.1535 42.798 30.0176 42.9339C29.4027 43.5488 28.7822 44.1043 28.1673 44.589C28.0433 44.6897 27.9252 44.7842 27.8011 44.8787ZM35.1075 53.9172C33.3635 53.9172 31.7203 52.7881 30.3845 50.8906H39.8309C38.4947 52.7881 36.8515 53.9172 35.1075 53.9172ZM40.5636 49.7084H29.6514C29.3735 49.2178 29.1136 48.6915 28.8771 48.1301C28.6818 47.675 28.4987 47.2021 28.333 46.7054H41.882C41.5096 47.8108 41.0722 48.8159 40.5636 49.7084ZM52.0079 45.866C50.341 47.5388 47.9231 47.734 45.263 46.5754C44.8492 46.3923 44.4295 46.1794 44.004 45.9369C43.478 45.6294 42.9458 45.2806 42.4139 44.8787C41.6749 44.3173 40.936 43.6728 40.1971 42.9339C40.0612 42.798 39.925 42.656 39.801 42.5142C39.4581 42.1418 39.1507 41.7458 38.8731 41.332C36.3964 37.7203 36.0177 32.9615 36 30.5793V30.2896C36 30.136 36 29.994 36.0059 29.864C37.1586 29.8345 39.4758 29.8758 42.0001 30.4553C42.6741 30.6089 43.3658 30.7982 44.0512 31.0407C44.0689 31.0466 44.0866 31.0525 44.1044 31.0584C45.8897 31.6851 47.6511 32.6308 49.0758 34.0555C53.5508 38.536 54.7035 43.1705 52.0079 45.866Z" fill="#231F20"/>
</svg>
