<svg width="70" height="79" viewBox="0 0 70 79" fill="none" xmlns="http://www.w3.org/2000/svg">
<path d="M0.75 20.1261L35 0.86051L69.25 20.1261V58.6239L35 77.8895L0.75 58.6239V20.1261Z" fill="white" stroke="#E1A122" stroke-width="1.5"/>
<path d="M29.5963 41.3185C29.7374 41.3221 29.8545 41.4291 29.8706 41.5695C29.9483 42.2563 30.3847 43.0956 31.0151 44.0065C31.6451 44.917 32.4605 45.9011 33.2585 46.9212C34.8486 48.9533 36.4075 51.1291 36.2218 53.2987C36.2218 53.3072 36.2208 53.3154 36.2208 53.3243C36.2063 57.0078 33.2079 60 29.5211 60C25.8291 60 22.8267 56.9999 22.8208 53.3095V53.2996C22.8208 53.2993 22.8208 53.299 22.8208 53.2987C22.7332 51.0202 24.3407 48.8522 25.9511 46.8526C27.5642 44.8498 29.1782 42.9768 29.3078 41.5751C29.3216 41.4268 29.4476 41.3149 29.5963 41.3185ZM38.4143 37.1841C38.3408 37.1825 38.2784 37.2379 38.2716 37.3111C38.2076 38.0044 37.4086 38.9314 36.6106 39.9223C35.8139 40.9116 35.0185 41.9846 35.0618 43.1117C35.0618 43.112 35.0618 43.112 35.0618 43.1124V43.1173C35.0648 44.9433 36.5505 46.4277 38.3772 46.4277C40.2016 46.4277 41.685 44.9472 41.6919 43.1245C41.6919 43.1202 41.6926 43.1163 41.6926 43.112C41.7845 42.0384 41.013 40.9618 40.2265 39.9564C39.8315 39.4518 39.4282 38.9649 39.1165 38.5143C38.8048 38.0638 38.5889 37.6484 38.5501 37.3085C38.5423 37.2389 38.4842 37.1858 38.4143 37.1841Z" fill="#FFCD5F"/>
<path d="M53.5859 33.5685L44.8538 18.444C44.6953 18.1693 44.402 18 44.0847 18H26.6205C26.3032 18 26.0099 18.1693 25.8517 18.444L17.1194 33.5685C16.9602 33.8432 16.9602 34.1818 17.1194 34.4565L23.0181 44.6726C23.0207 44.6772 23.0246 44.6808 23.0272 44.6858C21.7213 46.4543 20.6707 48.3332 20.7481 50.3512C20.755 54.5292 24.1596 57.9282 28.3366 57.9282C32.5045 57.9282 35.9084 54.5364 35.9222 50.4125L35.9235 50.3941C35.9337 50.2708 35.9357 50.148 35.9367 50.0253H44.0843C44.4016 50.0253 44.695 49.856 44.8531 49.5814L53.5852 34.4568C53.7447 34.1818 53.7447 33.8432 53.5859 33.5685ZM34.1513 50.2898L34.1484 50.3603C34.1362 53.554 31.5293 56.1521 28.337 56.1521C25.1374 56.1521 22.5301 53.5481 22.5239 50.3042C22.4494 48.3565 23.9329 46.3434 25.4587 44.4488L25.8806 43.9268C26.9021 42.6665 27.8346 41.5154 28.4128 40.4457C28.5985 40.7886 28.8269 41.1551 29.1008 41.5512C29.5783 42.2422 30.1413 42.951 30.7375 43.7014C30.9485 43.9672 31.1618 44.2362 31.3747 44.5086C32.8667 46.414 34.3095 48.429 34.1513 50.2898ZM43.5718 48.2492H35.6633C35.1469 46.5649 33.9761 44.9509 32.7735 43.4143C32.5586 43.139 32.3417 42.8663 32.1278 42.5972C31.551 41.8701 31.0056 41.1837 30.561 40.5409C29.8076 39.4522 29.6055 38.8353 29.5691 38.5111C29.5044 37.9323 29.0168 37.485 28.4341 37.4706H28.4328C28.4236 37.4706 28.4144 37.4706 28.4055 37.4706C27.8047 37.4706 27.2955 37.932 27.2394 38.5337C27.1459 39.5437 25.8009 41.204 24.5002 42.8095L24.2042 43.176L18.9139 34.0125L27.1334 19.7761H43.5721L51.7913 34.0125L43.5718 48.2492ZM43.1984 22.0405C43.1984 22.3677 42.9336 22.6325 42.6065 22.6325H28.9309L22.0931 34.4761C21.9832 34.6658 21.7843 34.7721 21.5796 34.7721C21.4788 34.7721 21.3771 34.7465 21.2842 34.693C21.0011 34.5293 20.9039 34.1674 21.0674 33.8842L28.0761 21.7446C28.1818 21.5611 28.3773 21.4486 28.589 21.4486H42.6065C42.9336 21.4486 43.1984 21.7134 43.1984 22.0405ZM39.4233 36.0465C39.1411 35.6915 38.8754 35.3562 38.6624 35.0487C38.2942 34.5168 38.2532 34.2898 38.2483 34.2458C38.1892 33.7398 37.761 33.349 37.2521 33.3362H37.2508C36.7084 33.3385 36.254 33.7323 36.2031 34.2694C36.169 34.6343 35.4612 35.5084 34.9441 36.146L34.7341 36.4055C33.8219 37.5392 32.9356 38.7654 32.9894 40.1586C32.9931 42.4729 34.8788 44.356 37.1931 44.356C39.5021 44.356 41.3875 42.4771 41.3937 40.22L41.3944 40.2095C41.5043 38.8294 40.638 37.5953 39.7416 36.4492L39.4233 36.0465ZM39.6199 40.1616C39.6153 41.4947 38.5266 42.5798 37.1934 42.5798C35.8566 42.5798 34.7682 41.4924 34.7653 40.1176C34.7341 39.3094 35.4169 38.3907 36.1181 37.5195L36.3245 37.2639C36.6546 36.857 36.967 36.4711 37.2298 36.099C37.4687 36.4413 37.7433 36.7865 38.0327 37.1513L38.3425 37.5438C39.026 38.4163 39.6871 39.3308 39.6218 40.0972L39.6199 40.1616Z" fill="#231F20"/>
</svg>
